PathFileType	4	(X/Y/Z)	c:/Users/goper/Files/vsCode/490R/osim_files/A06/A06_Fast_01.trc
DataRate	CameraRate	NumFrames	NumMarkers	Units                	OrigDataRate	OrigDataStartFrame	OrigNumFrames
120.00	120.00	8	36	mm	120.0	872	1162
                Frame#	Time	LPSIS			LASIS			LTH1			LTH2			LTH3			LTH4			LLFE			LMFE			LSH1			LSH2			LSH3			LSH4			LLMAL			LMMAL			LCAL			LMTP5			LTOE			LMTP1			RPSIS			RASIS			RTH1			RTH2			RTH3			RTH4			RLFE			RMFE			RSH1			RSH2			RSH3			RSH4			RLMAL			RMMAL			RCAL			RMTP1			RTOE			RMTP5		
		X1	Y1	Z1	X2	Y2	Z2	X3	Y3	Z3	X4	Y4	Z4	X5	Y5	Z5	X6	Y6	Z6	X7	Y7	Z7	X8	Y8	Z8	X9	Y9	Z9	X10	Y10	Z10	X11	Y11	Z11	X12	Y12	Z12	X13	Y13	Z13	X14	Y14	Z14	X15	Y15	Z15	X16	Y16	Z16	X17	Y17	Z17	X18	Y18	Z18	X19	Y19	Z19	X20	Y20	Z20	X21	Y21	Z21	X22	Y22	Z22	X23	Y23	Z23	X24	Y24	Z24	X25	Y25	Z25	X26	Y26	Z26	X27	Y27	Z27	X28	Y28	Z28	X29	Y29	Z29	X30	Y30	Z30	X31	Y31	Z31	X32	Y32	Z32	X33	Y33	Z33	X34	Y34	Z34	X35	Y35	Z35	X36	Y36	Z36

872	7.25833	-3122.15552	980.12891	298.58038	-3314.08667	929.18048	364.47458	-3338.48486	570.79407	402.23645	0.00000	0.00000	0.00000	-3396.11279	598.08533	395.22516	-3415.65210	562.21313	394.73090	-3419.11255	485.95248	378.80215	-3419.51074	482.20724	270.59906	-3405.82959	383.12509	396.92352	-3428.44287	343.40765	396.61377	-3456.84180	410.80386	387.31619	-3474.74634	371.72162	392.21298	-3548.89185	112.86538	356.97760	-3563.89258	138.52220	277.68707	0.00000	0.00000	0.00000	-3673.47925	124.06968	377.82166	-3696.02393	167.91435	329.65140	-3682.27075	151.12210	289.29834	-3120.72021	999.00928	167.25798	-3298.51733	954.28296	107.11629	-3114.62231	595.27142	83.02206	-3104.64990	554.64783	82.12235	-3173.51660	580.66278	88.87566	-3160.50562	539.60852	87.07606	-3100.05957	438.15912	111.97278	-3106.62329	440.62518	200.50259	-3037.81738	294.06415	132.16524	-3025.36572	248.51428	136.00410	-3096.03345	275.89529	140.80827	-3075.59253	231.49992	139.83687	-2978.21851	109.88614	135.77463	-2993.38867	113.37786	216.50726	-2920.02783	93.80029	185.78355	-3122.39526	55.35602	204.38033	-3135.89844	64.80487	164.66702	-3105.26025	52.46591	116.30539
873	7.26667	-3134.05273	977.96912	299.70029	-3326.51660	926.96307	363.95309	-3346.57690	568.59381	400.78531	-3370.30542	534.04333	395.18515	-3406.05127	594.89868	394.87799	-3425.06592	558.80103	393.84924	-3429.40991	483.14490	378.23953	-3429.02759	479.81140	269.73737	-3418.42773	380.47897	396.30923	-3440.98779	342.81561	396.82617	-3468.87646	409.37073	386.69437	-3487.12280	371.17648	388.91901	-3568.83081	113.55036	356.44449	-3582.74463	139.64539	277.11285	0.00000	0.00000	0.00000	-3693.24072	127.93601	376.82816	-3714.17578	172.45233	328.58032	-3700.67554	155.46468	288.27237	-3131.84399	997.44598	168.40048	-3309.45239	953.36841	106.81001	0.00000	0.00000	0.00000	-3114.40845	553.60974	82.42009	-3183.21460	579.43555	88.91349	-3168.60034	538.43567	87.09158	-3106.34497	437.83334	111.98405	-3113.03394	440.26132	200.52682	-3041.87427	294.67853	132.29001	-3028.26416	249.53661	136.19337	-3099.85254	275.72437	140.91293	-3078.18140	231.45409	140.51357	-2978.28052	110.66379	135.19252	-2994.30933	113.82429	216.69225	-2920.58765	94.67221	186.06194	-3122.65381	55.21930	204.40977	-3136.02759	64.86700	164.42567	-3105.38867	52.42328	116.34119
874	7.27500	-3146.10376	975.63385	300.79266	-3339.01001	924.82281	363.42975	-3360.96509	564.50018	399.95938	-3380.76392	530.46753	392.60516	-3417.19922	592.19507	394.36884	-3433.61914	554.19977	392.76920	-3440.66187	480.85257	377.74341	-3439.43604	477.84430	268.90094	-3430.73438	378.03238	395.52197	-3453.17627	341.55563	395.44016	-3480.99316	407.80942	385.82547	-3499.74048	369.86362	388.04614	-3585.81128	113.19199	355.65381	-3598.99585	139.69264	276.36780	-3537.18140	73.45971	303.08176	-3710.13306	129.36842	375.68259	-3730.06958	174.42377	327.53223	-3716.62549	157.34097	287.23477	-3143.02637	995.72760	169.52083	-3320.32471	952.37976	106.48178	0.00000	0.00000	0.00000	-3121.03418	553.81445	82.07969	-3191.81421	577.85834	88.76786	-3176.74390	537.14264	86.95653	-3112.86499	437.51019	111.93962	-3119.67017	439.83783	200.47820	-3046.33252	295.31329	132.29948	-3032.41870	250.19553	136.20799	-3103.80029	275.56503	140.85648	-3082.02612	231.83850	139.82448	-2978.95630	111.48942	135.31540	-2995.17798	114.34924	216.89442	-2921.27930	95.76051	186.26154	-3121.87866	55.06539	204.78444	-3136.47681	64.32449	164.71716	-3105.57104	52.40650	116.34205
875	7.28333	-3158.31299	973.35364	301.69531	-3351.50757	922.75244	363.01703	-3374.04102	563.29980	399.56870	-3392.03638	528.98566	392.00912	-3429.27246	590.34021	393.87112	0.00000	0.00000	0.00000	-3452.67017	478.96457	377.30814	-3451.09473	476.30579	268.18488	0.00000	0.00000	0.00000	-3465.58667	338.74927	394.08374	-3493.54370	405.98544	385.24753	-3512.79419	367.77145	390.12851	-3599.63818	111.82185	354.46213	-3612.69434	138.52786	275.21832	-3551.04395	71.95084	301.79608	-3723.79004	128.29149	374.47375	-3743.52393	173.49347	326.44101	-3730.18481	156.53566	286.12906	-3154.57715	994.11731	170.45134	-3331.64648	951.51239	106.28411	-3140.98071	594.51868	81.82604	-3129.78418	553.25537	81.94273	-3200.37231	576.16309	88.44630	-3184.38672	535.47858	86.36353	-3119.55737	437.16205	111.72568	-3126.41504	439.56601	200.23181	-3050.85181	296.04886	132.11000	-3036.11133	251.17856	136.04570	-3107.80371	275.46997	140.72021	-3085.42261	232.01903	139.75658	-2980.01099	112.11563	135.87804	-2995.86377	115.31123	216.85696	-2921.97900	97.09022	186.29903	-3122.14868	54.94142	204.84241	-3136.88721	64.08665	164.74069	-3105.82788	52.39663	116.36427
876	7.29167	-3170.48120	971.13898	302.38055	-3363.78247	920.65454	362.76385	-3387.49438	561.95282	399.06833	-3411.30664	528.68628	398.45590	-3442.23242	589.00452	393.16693	-3460.57959	552.75812	391.37985	-3465.69531	477.47318	376.82837	-3463.87695	475.08438	267.62976	0.00000	0.00000	0.00000	-3478.53198	337.47955	393.70462	-3506.20557	403.77426	384.56110	-3525.05811	365.90179	386.67761	-3610.30542	109.06586	353.03165	-3623.68066	135.85793	273.78372	-3561.60474	69.55696	300.22479	-3734.52612	124.91413	373.24933	-3754.49976	169.98375	325.30264	-3741.22363	153.17285	284.92502	-3166.14453	992.44617	171.09668	-3343.28003	950.60254	106.14600	0.00000	0.00000	0.00000	-3139.99927	552.18335	81.94660	-3209.01025	574.22028	88.04939	-3192.78394	534.02124	86.01882	-3126.34912	436.79053	111.42046	-3133.18311	439.12793	199.93181	-3055.39868	296.76859	131.85828	-3039.45947	252.35652	135.95010	-3111.98926	275.39883	140.50990	-3088.89136	232.28250	139.62758	-2980.50244	113.42142	135.18832	-2996.88599	116.07447	216.89810	-2923.13428	98.36312	186.07190	-3122.46729	54.84434	204.88414	-3137.28760	63.81334	164.75169	-3106.18677	52.34799	116.36127
877	7.30000	-3182.61890	968.80786	302.70453	-3376.02197	918.61865	362.67935	-3401.10718	560.82471	398.33871	0.00000	0.00000	0.00000	-3456.33276	588.20441	392.25650	-3475.03442	552.20917	390.73349	-3479.72021	476.45950	376.10379	-3477.40576	474.03101	267.01892	0.00000	0.00000	0.00000	-3490.69214	333.66113	392.76764	-3519.38940	401.49463	383.86237	-3537.76416	363.22815	385.75330	-3617.92432	106.26369	351.66788	-3632.31030	132.37349	272.22586	-3568.43750	68.86858	298.62680	-3742.46118	119.29313	371.80878	-3763.01978	163.78198	323.82962	-3749.98145	147.08925	283.43631	-3178.19409	990.73236	171.48621	-3355.19629	949.55060	106.10331	-3160.62183	595.69763	79.23313	-3149.17041	551.40320	81.50275	-3218.08179	572.59894	87.77776	-3202.36377	532.85199	86.04645	-3133.31445	436.31116	111.09506	-3139.68359	438.82336	199.45253	-3060.22900	297.55939	131.52667	-3043.88501	253.23154	135.56390	-3116.20239	275.25742	140.29504	-3092.45361	232.47705	139.38518	-2981.31226	114.74555	135.10750	-2997.85645	117.15855	216.72797	-2923.58569	100.25003	185.87329	-3122.85010	54.75763	204.87599	-3137.70068	63.53031	164.72841	-3106.62524	52.38185	116.34106
878	7.30833	-3195.11157	966.53894	302.80667	-3388.32471	916.51440	362.91681	-3414.43433	559.57532	397.22339	0.00000	0.00000	0.00000	-3471.07349	587.57642	391.33612	-3490.21729	551.84351	389.93878	-3494.21191	475.60367	375.10007	-3491.56250	473.09686	266.24084	0.00000	0.00000	0.00000	-3502.61475	332.10629	392.05975	-3532.35620	398.88480	382.46402	-3550.34277	359.67685	387.22488	-3622.46094	104.02793	350.49185	-3638.48682	127.81671	270.48935	-3572.23267	69.19088	297.23212	-3747.74023	111.47738	370.29193	-3770.35791	154.08075	321.64142	-3756.93018	137.35814	281.43671	-3190.54224	989.04474	171.61407	-3367.32910	948.38062	106.18424	-3170.23706	594.57788	79.24872	-3157.77930	550.73761	80.90578	-3227.39453	570.70972	87.38213	-3211.14160	531.29150	85.65147	-3140.41284	435.85434	110.72167	-3146.63647	438.33484	199.05397	-3064.90283	298.33038	131.13380	-3047.21704	254.54796	135.29611	-3120.55688	275.22653	140.04594	-3096.14819	232.87047	139.16280	-2982.55737	115.81798	134.70872	-2998.65503	118.43291	216.48557	-2924.47461	102.12775	185.58087	-3123.24731	54.72632	204.83119	-3138.16382	63.26671	164.72406	-3107.07837	52.42326	116.32412
879	7.31667	-3207.46313	964.39746	302.63385	-3400.52295	914.29645	363.37122	-3429.45776	558.91205	396.62857	0.00000	0.00000	0.00000	-3486.23389	587.04193	390.04330	-3505.84912	551.65839	389.01004	-3509.03638	474.79010	373.72641	-3505.83252	471.80582	265.35303	-3493.34790	369.55289	390.59036	-3514.05371	330.16080	391.00348	-3546.37231	395.75012	380.13696	-3562.50415	356.48715	385.40152	-3626.83350	100.24467	349.07855	-3643.72559	122.59213	268.88522	-3575.83667	69.47126	296.27966	-3752.91479	102.60758	368.84656	-3776.24170	143.07904	319.40994	-3763.18359	127.07229	279.50998	-3203.02002	987.42218	171.45831	-3379.96167	947.19641	106.48625	-3179.78662	593.20374	79.41111	-3167.05249	549.95105	80.51445	-3236.88794	568.81274	87.02656	-3219.98291	529.72540	85.30862	-3147.64136	435.42929	110.35576	-3153.17578	437.62195	199.38866	-3068.32690	300.00446	130.97273	-3051.30176	255.81541	134.89751	-3124.95703	275.14008	139.84586	-3099.95825	233.17346	138.91914	-2984.05005	117.12600	135.39751	-2999.77295	119.70347	216.35754	-2925.06152	104.23763	185.18555	-3123.71826	54.68984	204.80743	-3138.74072	63.05285	164.75708	-3108.98560	53.40736	117.39153
